<svg width="191" height="191" viewBox="0 0 191 191" fill="none" xmlns="http://www.w3.org/2000/svg">
<path d="M40.0194 124.64L34.0434 142.1H28.7514L25.9434 133.028L23.1354 142.1H17.8434L11.8314 124.64H17.9514L20.6514 133.964L23.6394 124.64H28.2474L31.1994 133.928L33.9354 124.64H40.0194ZM58.8221 132.992C58.8221 133.928 58.7861 134.612 58.7141 135.08H46.2941C46.8341 136.952 48.1661 137.888 50.2181 137.888C51.4781 137.888 52.3421 137.456 52.8821 136.628H58.6781C57.8141 140.228 54.4661 142.496 50.1461 142.496C47.3021 142.496 44.9981 141.632 43.2341 139.94C41.4701 138.248 40.6061 136.052 40.6061 133.352C40.6061 130.688 41.4701 128.492 43.1621 126.8C44.8901 125.108 47.1581 124.244 49.9301 124.244C52.4861 124.244 54.6101 125.072 56.3021 126.692C57.9941 128.312 58.8221 130.4 58.8221 132.992ZM49.8941 128.744C47.9501 128.744 46.7261 129.716 46.2581 131.66H53.3501C53.0261 129.716 51.8741 128.744 49.8941 128.744Z" fill="#FB2C36"/>
<path d="M64.9508 121.904C63.0788 121.904 61.5308 120.5 61.5308 118.628C61.5308 116.756 63.0788 115.316 64.9508 115.316C66.8588 115.316 68.3708 116.756 68.3708 118.628C68.3708 120.5 66.8588 121.904 64.9508 121.904ZM67.9028 124.64V140.696C67.9028 143.576 67.2908 145.7 66.0668 147.104C64.8428 148.508 62.5748 149.264 59.2988 149.336L58.7948 144.476C61.2788 144.224 62.0348 143.504 62.0348 141.452V124.64H67.9028ZM89.84 124.64V142.1H84.008V140.948C82.532 142.064 80.948 142.64 79.22 142.64C76.988 142.64 75.188 141.92 73.82 140.48C72.452 139.04 71.768 137.096 71.768 134.612V124.64H77.6V133.712C77.6 136.124 78.824 137.384 80.804 137.384C81.92 137.384 82.964 136.808 84.008 135.656V124.64H89.84ZM92.6281 136.088L97.8121 136.124C98.0641 137.6 99.1441 138.32 101.124 138.32C102.672 138.32 103.644 137.852 103.644 137.096C103.644 136.448 103.068 136.052 101.952 135.872L98.4241 135.26C95.2561 134.72 93.2761 132.92 93.2761 130.004C93.2761 126.404 96.3721 124.172 101.088 124.172C103.248 124.172 105.12 124.64 106.668 125.612C108.252 126.584 109.116 128.096 109.26 130.22H104.04C103.932 128.924 102.78 128.276 101.088 128.276C99.6841 128.276 98.8921 128.816 98.8921 129.536C98.8921 130.22 99.5041 130.688 100.728 130.904L103.968 131.444C107.604 132.056 109.44 133.892 109.44 136.736C109.44 138.644 108.684 140.12 107.136 141.128C105.624 142.136 103.644 142.64 101.232 142.64C96.3721 142.64 92.9521 140.516 92.6281 136.088ZM125.945 136.844L126.593 141.776C124.757 142.352 122.993 142.64 121.301 142.64C119.177 142.64 117.449 141.92 116.189 140.516C114.893 139.076 114.281 137.168 114.281 134.828V129.644H110.861V124.64H114.281V118.7H120.113V124.64H126.053V129.644H120.113V134.648C120.113 136.412 121.013 137.276 122.849 137.276C123.425 137.276 124.469 137.132 125.945 136.844ZM132.524 121.904C130.616 121.904 129.104 120.5 129.104 118.628C129.104 116.756 130.616 115.316 132.524 115.316C134.396 115.316 135.944 116.756 135.944 118.628C135.944 120.5 134.396 121.904 132.524 121.904ZM135.476 124.64V142.1H129.644V124.64H135.476ZM148.338 137.564C150.102 137.564 151.47 136.52 151.758 134.936H157.266C157.05 137.168 156.114 139.004 154.422 140.408C152.766 141.812 150.714 142.496 148.302 142.496C145.566 142.496 143.298 141.668 141.462 139.94C139.662 138.248 138.762 136.016 138.762 133.352C138.762 130.724 139.662 128.528 141.462 126.836C143.298 125.108 145.566 124.244 148.302 124.244C150.714 124.244 152.766 124.964 154.422 126.368C156.114 127.772 157.05 129.572 157.266 131.804H151.758C151.47 130.22 150.102 129.176 148.338 129.176C145.89 129.176 144.342 130.904 144.342 133.352C144.342 135.8 145.89 137.564 148.338 137.564ZM177.861 132.992C177.861 133.928 177.825 134.612 177.753 135.08H165.333C165.873 136.952 167.205 137.888 169.257 137.888C170.517 137.888 171.381 137.456 171.921 136.628H177.717C176.853 140.228 173.505 142.496 169.185 142.496C166.341 142.496 164.037 141.632 162.273 139.94C160.509 138.248 159.645 136.052 159.645 133.352C159.645 130.688 160.509 128.492 162.201 126.8C163.929 125.108 166.197 124.244 168.969 124.244C171.525 124.244 173.649 125.072 175.341 126.692C177.033 128.312 177.861 130.4 177.861 132.992ZM168.933 128.744C166.989 128.744 165.765 129.716 165.297 131.66H172.389C172.065 129.716 170.913 128.744 168.933 128.744Z" fill="#101828"/>
<path d="M114.396 64.8208C99.4231 64.8208 97.4483 63.2818 97.4483 54.4636H123.005V71.5904C123.005 79.2607 111.199 91.4821 94.8926 97.8196C74.248 88.4225 68.3124 84.8876 67.7218 68.8561H91.6448C89.6244 73.1843 89.6847 75.4065 90.7032 79.2133C90.7032 79.2133 93.1559 68.4749 100.388 67.511C107.62 66.547 112.417 68.8561 114.396 64.8208Z" fill="#FB2C36"/>
<path d="M93.182 64.8208V34.8C89.1585 34.9043 86.9337 35.135 83.0361 35.9273V64.8208H93.182Z" fill="#FB2C36"/>
<path d="M67.7218 64.8208H77.8222L77.891 36.836C74.1244 37.668 71.9024 38.2797 67.7218 39.6616V64.8208Z" fill="#FB2C36"/>
<path d="M97.4483 50.052V34.8C101.684 34.6967 104.024 34.8158 108.123 35.4085V50.052H97.4483Z" fill="#FB2C36"/>
<path d="M112.392 50.052H123.005V40.0653C118.932 38.1908 116.604 37.4161 112.392 36.4064V50.052Z" fill="#FB2C36"/>
</svg>
